<svg xmlns="http://www.w3.org/2000/svg" xmlns:xlink="http://www.w3.org/1999/xlink" id="Layer_1" x="0" y="0" enable-background="new 0 0 35 35" version="1.1" viewBox="0 0 35 35" xml:space="preserve"><polygon fill="#D4663A" points="12 8 16 8 16 4 4 4 4 8 8 8 8 26 4 26 4 30 16 30 16 26 12 26 12 22 16 22 16 18 12 18"/><polygon fill="#D4663A" points="24 8 30 8 30 4 20 4 20 8 20 14 24 14"/><polygon fill="#D4663A" points="28 26 28 22 24 22 24 26 20 26 20 30 32 30 32 26"/><rect width="4" height="4" x="16" y="14" fill="#D4663A"/><rect width="4" height="4" x="20" y="18" fill="#D4663A"/></svg>